<svg width="120.000000" height="24.000000" viewBox="0 0 120 24" fill="none" xmlns="http://www.w3.org/2000/svg" xmlns:xlink="http://www.w3.org/1999/xlink">
	<desc>
			Created with Pixso.
	</desc>
	<defs/>
	<path id="Path" d="M22.675 0L1.32495 0C0.593018 0 0 0.593018 0 1.32495L0 22.676C0 23.407 0.593018 24 1.32495 24L12.8201 24L12.8201 14.7061L9.69189 14.7061L9.69189 11.084L12.8201 11.084L12.8201 8.41296C12.8201 5.31299 14.7129 3.625 17.479 3.625C18.804 3.625 19.9419 3.724 20.2739 3.76794L20.2739 7.00806L18.356 7.00903C16.8521 7.00903 16.561 7.724 16.561 8.77197L16.561 11.085L20.1479 11.085L19.6809 14.707L16.561 14.707L16.561 24L22.677 24C23.407 24 24 23.407 24 22.675L24 1.32495C24 0.593018 23.407 0 22.675 0Z" fill="#FBFCFE" fill-opacity="1.000000" fill-rule="nonzero"/>
	<path id="Path" d="M72 4.55701C71.1169 4.9491 70.168 5.21301 69.1721 5.33203C70.189 4.72302 70.97 3.75806 71.3369 2.60803C70.386 3.172 69.332 3.58203 68.21 3.8031C67.313 2.84607 66.032 2.24805 64.616 2.24805C61.437 2.24805 59.1011 5.21399 59.8191 8.29309C55.728 8.08801 52.1001 6.12805 49.6709 3.14905C48.3811 5.36206 49.002 8.25708 51.1941 9.72302C50.3879 9.69702 49.6279 9.47607 48.9651 9.10706C48.9109 11.3881 50.5459 13.5221 52.9141 13.9971C52.2209 14.1851 51.4619 14.229 50.6899 14.0811C51.3159 16.037 53.134 17.4601 55.29 17.5C53.22 19.123 50.6121 19.848 48 19.54C50.179 20.937 52.7681 21.7521 55.5481 21.7521C64.6899 21.7521 69.855 14.031 69.543 7.10608C70.5049 6.41101 71.3401 5.54407 72 4.55701Z" fill="#FBFCFE" fill-opacity="1.000000" fill-rule="nonzero"/>
	<path id="Shape" d="M98.3999 0L117.6 0C118.92 0 120 1.07996 120 2.40002L120 21.6C120 22.92 118.92 24 117.6 24L98.3999 24C97.0801 24 96 22.92 96 21.6L96 2.40002C96 1.07996 97.0801 0 98.3999 0ZM101.4 7.56006C100.2 7.56006 99.24 6.59998 99.24 5.40002C99.24 4.19995 100.2 3.23999 101.4 3.23999C102.6 3.23999 103.56 4.19995 103.56 5.40002C103.56 6.59998 102.6 7.56006 101.4 7.56006ZM112.8 20.4L116.4 20.4L116.4 13.5601C116.4 11.28 114.48 9.35999 112.2 9.35999C111.12 9.35999 109.8 10.08 109.2 11.04L109.2 9.59998L105.6 9.59998L105.6 20.4L109.2 20.4L109.2 14.04C109.2 13.0801 110.04 12.24 111 12.24C111.96 12.24 112.8 13.0801 112.8 14.04L112.8 20.4ZM99.6001 20.4L103.2 20.4L103.2 9.59998L99.6001 9.59998L99.6001 20.4Z" clip-rule="evenodd" fill="#FFFFFF" fill-opacity="1.000000" fill-rule="evenodd"/>
</svg>
