<svg width="95.000000" height="28.000000" viewBox="0 0 95 28" fill="none" xmlns="http://www.w3.org/2000/svg" xmlns:xlink="http://www.w3.org/1999/xlink">
	<desc>
			Created with Pixso.
	</desc>
	<defs>
		<clipPath id="clip0_4317">
			<rect id="Group 2 Copy 3" width="95.000000" height="28.000000" fill="white" fill-opacity="0"/>
		</clipPath>
	</defs>
	<rect id="Group 2 Copy 3" width="95.000000" height="28.000000" fill="#FFFFFF" fill-opacity="0"/>
	<g clip-path="url(#clip0_4317)">
		<path id="Identity" d="M37.528 8.232L39.008 8.232L39.008 19.8L37.528 19.8L37.528 8.232ZM44.6299 19.96C43.5579 19.96 42.7072 19.592 42.0779 18.856C41.4485 18.12 41.1339 17.0453 41.1339 15.632C41.1339 14.7733 41.2592 14.024 41.5099 13.384C41.7659 12.744 42.1445 12.248 42.6459 11.896C43.1472 11.544 43.7712 11.368 44.5179 11.368C44.9125 11.368 45.2619 11.4187 45.5659 11.52C45.8752 11.6213 46.1419 11.7493 46.3659 11.904C46.5899 12.0587 46.7712 12.2187 46.9099 12.384C47.0539 12.5493 47.1605 12.7013 47.2299 12.84L47.2299 7.912L48.7179 7.912L48.7179 19.8L47.5899 19.8L47.4299 18.104C47.3765 18.264 47.2912 18.4507 47.1739 18.664C47.0565 18.872 46.8912 19.0773 46.6779 19.28C46.4645 19.4773 46.1899 19.64 45.8539 19.768C45.5232 19.896 45.1152 19.96 44.6299 19.96ZM44.8939 18.824C45.7312 18.824 46.3285 18.5707 46.6859 18.064C47.0485 17.552 47.2299 16.7173 47.2299 15.56C47.2245 14.9147 47.1419 14.3653 46.9819 13.912C46.8272 13.4587 46.5819 13.1147 46.2459 12.88C45.9152 12.64 45.4752 12.52 44.9259 12.52C44.2432 12.52 43.6885 12.7627 43.2619 13.248C42.8352 13.7333 42.6219 14.504 42.6219 15.56C42.6219 16.5947 42.8139 17.3973 43.1979 17.968C43.5872 18.5387 44.1525 18.824 44.8939 18.824ZM52.2175 16.008C52.2175 16.5307 52.3028 17.0053 52.4735 17.432C52.6495 17.8533 52.9135 18.1893 53.2655 18.44C53.6228 18.6907 54.0682 18.816 54.6015 18.816C55.1295 18.816 55.5828 18.6933 55.9615 18.448C56.3455 18.2027 56.5908 17.848 56.6975 17.384L58.0975 17.384C57.9962 17.944 57.7722 18.416 57.4255 18.8C57.0788 19.184 56.6602 19.4747 56.1695 19.672C55.6788 19.864 55.1668 19.96 54.6335 19.96C53.8602 19.96 53.1802 19.792 52.5935 19.456C52.0068 19.12 51.5482 18.6373 51.2175 18.008C50.8868 17.3787 50.7215 16.624 50.7215 15.744C50.7215 14.8747 50.8708 14.112 51.1695 13.456C51.4682 12.8 51.9002 12.288 52.4655 11.92C53.0362 11.552 53.7215 11.368 54.5215 11.368C55.3002 11.368 55.9588 11.536 56.4975 11.872C57.0362 12.208 57.4442 12.6827 57.7215 13.296C58.0042 13.904 58.1455 14.6267 58.1455 15.464L58.1455 16.008L52.2175 16.008ZM52.2255 15.008L56.7215 15.008C56.7215 14.5333 56.6415 14.1067 56.4815 13.728C56.3215 13.344 56.0762 13.0427 55.7455 12.824C55.4202 12.6 55.0095 12.488 54.5135 12.488C53.9962 12.488 53.5668 12.6133 53.2255 12.864C52.8895 13.1093 52.6362 13.4267 52.4655 13.816C52.3002 14.2 52.2202 14.5973 52.2255 15.008ZM60.1771 19.8L60.1771 11.528L61.6091 11.528L61.6091 12.728C61.7425 12.4987 61.9265 12.2827 62.1611 12.08C62.4011 11.8773 62.6891 11.7147 63.0251 11.592C63.3665 11.4693 63.7585 11.408 64.2011 11.408C64.7238 11.408 65.2038 11.512 65.6411 11.72C66.0838 11.928 66.4358 12.2533 66.6971 12.696C66.9638 13.1333 67.0971 13.6987 67.0971 14.392L67.0971 19.8L65.6171 19.8L65.6171 14.536C65.6171 13.8907 65.4465 13.4133 65.1051 13.104C64.7691 12.7893 64.3318 12.632 63.7931 12.632C63.4198 12.632 63.0705 12.6933 62.7451 12.816C62.4198 12.9333 62.1558 13.1147 61.9531 13.36C61.7505 13.6 61.6491 13.904 61.6491 14.272L61.6491 19.8L60.1771 19.8ZM73.2235 12.608L71.3595 12.608L71.3595 17.752C71.3595 18.0453 71.3888 18.2613 71.4475 18.4C71.5115 18.5333 71.6155 18.6187 71.7595 18.656C71.9088 18.6933 72.1115 18.712 72.3675 18.712L73.2715 18.712L73.2715 19.704C73.1702 19.7413 73.0155 19.7733 72.8075 19.8C72.6048 19.8267 72.3515 19.84 72.0475 19.84C71.4768 19.84 71.0342 19.7627 70.7195 19.608C70.4048 19.4533 70.1835 19.224 70.0555 18.92C69.9328 18.616 69.8715 18.2427 69.8715 17.8L69.8715 12.608L68.5275 12.608L68.5275 11.528L69.9115 11.528L70.2715 9.12L71.3595 9.12L71.3595 11.52L73.2235 11.52L73.2235 12.608ZM76.949 11.528L76.949 19.8L75.517 19.8L75.517 11.528L76.949 11.528ZM76.981 8.24L76.981 9.776L75.469 9.776L75.469 8.24L76.981 8.24ZM83.8641 12.608L82.0001 12.608L82.0001 17.752C82.0001 18.0453 82.0295 18.2613 82.0881 18.4C82.1521 18.5333 82.2561 18.6187 82.4001 18.656C82.5495 18.6933 82.7521 18.712 83.0081 18.712L83.9121 18.712L83.9121 19.704C83.8108 19.7413 83.6561 19.7733 83.4481 19.8C83.2455 19.8267 82.9921 19.84 82.6881 19.84C82.1175 19.84 81.6748 19.7627 81.3601 19.608C81.0455 19.4533 80.8241 19.224 80.6961 18.92C80.5735 18.616 80.5121 18.2427 80.5121 17.8L80.5121 12.608L79.1681 12.608L79.1681 11.528L80.5521 11.528L80.9121 9.12L82.0001 9.12L82.0001 11.52L83.8641 11.52L83.8641 12.608ZM86.8681 22.44C86.3828 22.44 86.0495 22.4053 85.8681 22.336C85.6868 22.2667 85.5961 22.232 85.5961 22.232L85.5961 21.272L86.4361 21.288C86.7455 21.2987 87.0015 21.2773 87.2041 21.224C87.4068 21.1707 87.5695 21.0987 87.6921 21.008C87.8148 20.9173 87.9081 20.816 87.9721 20.704C88.0415 20.592 88.0975 20.4853 88.1401 20.384L88.4281 19.6L85.1961 11.528L86.6921 11.528L89.1321 17.912L91.5561 11.528L93.0041 11.528L89.5161 20.424C89.3028 20.9467 89.0628 21.3547 88.7961 21.648C88.5348 21.9413 88.2415 22.1467 87.9161 22.264C87.5961 22.3813 87.2468 22.44 86.8681 22.44Z" fill="#36536B" fill-opacity="1.000000" fill-rule="evenodd"/>
		<path id="Path 3" d="" fill="#D8D8D8" fill-opacity="0" fill-rule="nonzero"/>
		<path id="Path 3" d="M0 13.7179L3.89307 17.5599L12 9.55994" stroke="#BA4270" stroke-opacity="1.000000" stroke-width="2.000000"/>
	</g>
</svg>
