<svg width="134.000000" height="28.000000" viewBox="0 0 134 28" fill="none" xmlns="http://www.w3.org/2000/svg" xmlns:xlink="http://www.w3.org/1999/xlink">
	<desc>
			Created with Pixso.
	</desc>
	<defs>
		<clipPath id="clip0_4311">
			<rect id="Group 2" width="134.000000" height="28.000000" fill="white" fill-opacity="0"/>
		</clipPath>
	</defs>
	<rect id="Group 2" width="134.000000" height="28.000000" fill="#FFFFFF" fill-opacity="0"/>
	<g clip-path="url(#clip0_4311)">
		<path id="Transactions" d="M36.368 9.592L36.368 8.232L45.12 8.232L45.12 9.592L41.592 9.592L41.592 19.8L40.104 19.8L40.104 9.592L36.368 9.592ZM46.1927 19.8L46.1927 11.528L47.6007 11.528L47.6007 13.12C47.7394 12.7253 47.9341 12.4 48.1847 12.144C48.4354 11.8827 48.7207 11.688 49.0407 11.56C49.3661 11.432 49.7021 11.368 50.0488 11.368C50.1714 11.368 50.2914 11.376 50.4088 11.392C50.5261 11.408 50.6168 11.4347 50.6807 11.472L50.6807 12.904C50.6007 12.8667 50.4967 12.8427 50.3688 12.832C50.2461 12.816 50.1421 12.808 50.0568 12.808C49.7261 12.7867 49.4167 12.808 49.1287 12.872C48.8408 12.9307 48.5874 13.0347 48.3688 13.184C48.1501 13.3333 47.9767 13.5307 47.8488 13.776C47.7261 14.016 47.6647 14.3093 47.6647 14.656L47.6647 19.8L46.1927 19.8ZM54.4808 19.96C53.9474 19.96 53.4754 19.8667 53.0648 19.68C52.6541 19.488 52.3314 19.2133 52.0967 18.856C51.8674 18.4987 51.7528 18.0667 51.7528 17.56C51.7528 16.6427 52.0728 15.96 52.7127 15.512C53.3528 15.064 54.3794 14.824 55.7928 14.792L57.2728 14.752L57.2728 14.104C57.2728 13.5973 57.1208 13.1973 56.8167 12.904C56.5127 12.6053 56.0407 12.456 55.4007 12.456C54.9261 12.4613 54.5074 12.5733 54.1448 12.792C53.7874 13.0107 53.5554 13.368 53.4487 13.864L52.1448 13.864C52.1768 13.3253 52.3288 12.872 52.6007 12.504C52.8727 12.1307 53.2514 11.848 53.7367 11.656C54.2274 11.464 54.8061 11.368 55.4727 11.368C56.1927 11.368 56.7901 11.4693 57.2648 11.672C57.7448 11.8747 58.1021 12.1733 58.3368 12.568C58.5768 12.9627 58.6968 13.448 58.6968 14.024L58.6968 19.8L57.4328 19.8L57.3288 18.248C57.0088 18.8933 56.6007 19.3413 56.1048 19.592C55.6141 19.8373 55.0728 19.96 54.4808 19.96ZM54.9287 18.896C55.2061 18.896 55.4808 18.8453 55.7528 18.744C56.0301 18.6427 56.2834 18.5067 56.5127 18.336C56.7421 18.16 56.9234 17.9653 57.0568 17.752C57.1954 17.5333 57.2674 17.3093 57.2728 17.08L57.2728 15.664L56.0407 15.688C55.4114 15.6987 54.8834 15.7627 54.4567 15.88C54.0354 15.9973 53.7181 16.1813 53.5047 16.432C53.2967 16.6827 53.1927 17.0107 53.1927 17.416C53.1927 17.88 53.3528 18.2427 53.6728 18.504C53.9981 18.7653 54.4167 18.896 54.9287 18.896ZM61.224 19.8L61.224 11.528L62.656 11.528L62.656 12.728C62.7893 12.4987 62.9733 12.2827 63.208 12.08C63.448 11.8773 63.736 11.7147 64.072 11.592C64.4133 11.4693 64.8053 11.408 65.248 11.408C65.7707 11.408 66.2507 11.512 66.688 11.72C67.1307 11.928 67.4827 12.2533 67.744 12.696C68.0107 13.1333 68.144 13.6987 68.144 14.392L68.144 19.8L66.664 19.8L66.664 14.536C66.664 13.8907 66.4933 13.4133 66.152 13.104C65.816 12.7893 65.3787 12.632 64.84 12.632C64.4667 12.632 64.1173 12.6933 63.792 12.816C63.4667 12.9333 63.2027 13.1147 63 13.36C62.7973 13.6 62.696 13.904 62.696 14.272L62.696 19.8L61.224 19.8ZM73.2538 19.96C72.6777 19.96 72.1418 19.872 71.6458 19.696C71.1551 19.5147 70.7471 19.2347 70.4218 18.856C70.0964 18.472 69.8911 17.984 69.8058 17.392L71.1497 17.392C71.2244 17.7173 71.3577 17.9893 71.5498 18.208C71.7471 18.4213 71.9924 18.584 72.2858 18.696C72.5791 18.8027 72.8991 18.856 73.2458 18.856C73.8004 18.856 74.2484 18.752 74.5898 18.544C74.9311 18.336 75.1017 18.016 75.1017 17.584C75.1017 17.28 75.0111 17.0373 74.8298 16.856C74.6537 16.6693 74.3791 16.5333 74.0058 16.448L72.2937 16.024C71.6271 15.864 71.0938 15.6133 70.6937 15.272C70.2937 14.9307 70.0938 14.4533 70.0938 13.84C70.0884 13.3547 70.2031 12.928 70.4378 12.56C70.6724 12.192 71.0244 11.9013 71.4938 11.688C71.9631 11.4747 72.5471 11.368 73.2458 11.368C74.1418 11.368 74.8644 11.5707 75.4137 11.976C75.9684 12.376 76.2564 12.9653 76.2778 13.744L74.9738 13.744C74.9204 13.3493 74.7417 13.0373 74.4378 12.808C74.1391 12.5733 73.7364 12.456 73.2298 12.456C72.7018 12.456 72.2724 12.5627 71.9417 12.776C71.6111 12.984 71.4458 13.3093 71.4458 13.752C71.4458 14.0453 71.5631 14.2773 71.7977 14.448C72.0324 14.6133 72.3791 14.752 72.8378 14.864L74.4938 15.28C74.8777 15.3813 75.1924 15.5147 75.4378 15.68C75.6884 15.8453 75.8857 16.0293 76.0298 16.232C76.1791 16.4347 76.2831 16.648 76.3418 16.872C76.4057 17.0907 76.4378 17.3013 76.4378 17.504C76.4378 18.0107 76.3098 18.448 76.0537 18.816C75.8031 19.1787 75.4404 19.4613 74.9658 19.664C74.4964 19.8613 73.9258 19.96 73.2538 19.96ZM80.8245 19.96C80.2912 19.96 79.8192 19.8667 79.4085 19.68C78.9978 19.488 78.6752 19.2133 78.4405 18.856C78.2112 18.4987 78.0965 18.0667 78.0965 17.56C78.0965 16.6427 78.4165 15.96 79.0565 15.512C79.6965 15.064 80.7232 14.824 82.1365 14.792L83.6165 14.752L83.6165 14.104C83.6165 13.5973 83.4645 13.1973 83.1605 12.904C82.8565 12.6053 82.3845 12.456 81.7445 12.456C81.2698 12.4613 80.8512 12.5733 80.4885 12.792C80.1312 13.0107 79.8992 13.368 79.7925 13.864L78.4885 13.864C78.5205 13.3253 78.6725 12.872 78.9445 12.504C79.2165 12.1307 79.5952 11.848 80.0805 11.656C80.5712 11.464 81.1498 11.368 81.8165 11.368C82.5365 11.368 83.1338 11.4693 83.6085 11.672C84.0885 11.8747 84.4458 12.1733 84.6805 12.568C84.9205 12.9627 85.0405 13.448 85.0405 14.024L85.0405 19.8L83.7765 19.8L83.6725 18.248C83.3525 18.8933 82.9445 19.3413 82.4485 19.592C81.9578 19.8373 81.4165 19.96 80.8245 19.96ZM81.2725 18.896C81.5498 18.896 81.8245 18.8453 82.0965 18.744C82.3738 18.6427 82.6272 18.5067 82.8565 18.336C83.0858 18.16 83.2672 17.9653 83.4005 17.752C83.5392 17.5333 83.6112 17.3093 83.6165 17.08L83.6165 15.664L82.3845 15.688C81.7552 15.6987 81.2272 15.7627 80.8005 15.88C80.3792 15.9973 80.0618 16.1813 79.8485 16.432C79.6405 16.6827 79.5365 17.0107 79.5365 17.416C79.5365 17.88 79.6965 18.2427 80.0165 18.504C80.3418 18.7653 80.7605 18.896 81.2725 18.896ZM90.8638 11.368C91.4557 11.368 91.9891 11.4827 92.4637 11.712C92.9384 11.936 93.3251 12.256 93.6237 12.672C93.9277 13.088 94.1171 13.5787 94.1917 14.144L92.8797 14.144C92.8317 13.856 92.7197 13.592 92.5437 13.352C92.3731 13.112 92.1464 12.92 91.8638 12.776C91.5811 12.632 91.2504 12.56 90.8717 12.56C90.1624 12.56 89.5864 12.816 89.1438 13.328C88.7011 13.84 88.4798 14.624 88.4798 15.68C88.4798 16.6347 88.6824 17.4 89.0878 17.976C89.4984 18.5467 90.1011 18.832 90.8958 18.832C91.2744 18.832 91.6024 18.76 91.8797 18.616C92.1624 18.4667 92.3891 18.272 92.5598 18.032C92.7304 17.7867 92.8398 17.5253 92.8877 17.248L94.1758 17.248C94.1064 17.8027 93.9198 18.2827 93.6158 18.688C93.3118 19.0933 92.9224 19.408 92.4478 19.632C91.9784 19.8507 91.4504 19.96 90.8638 19.96C90.1224 19.96 89.4637 19.7973 88.8877 19.472C88.3171 19.1467 87.8691 18.6667 87.5437 18.032C87.2184 17.3973 87.0558 16.6187 87.0558 15.696C87.0558 14.832 87.2024 14.0773 87.4958 13.432C87.7944 12.7813 88.2264 12.2747 88.7917 11.912C89.3624 11.5493 90.0531 11.368 90.8638 11.368ZM100.13 12.608L98.2657 12.608L98.2657 17.752C98.2657 18.0453 98.2951 18.2613 98.3538 18.4C98.4178 18.5333 98.5218 18.6187 98.6657 18.656C98.8151 18.6933 99.0177 18.712 99.2738 18.712L100.178 18.712L100.178 19.704C100.076 19.7413 99.9218 19.7733 99.7137 19.8C99.5111 19.8267 99.2578 19.84 98.9538 19.84C98.3831 19.84 97.9404 19.7627 97.6257 19.608C97.3111 19.4533 97.0898 19.224 96.9617 18.92C96.8391 18.616 96.7777 18.2427 96.7777 17.8L96.7777 12.608L95.4337 12.608L95.4337 11.528L96.8177 11.528L97.1777 9.12L98.2657 9.12L98.2657 11.52L100.13 11.52L100.13 12.608ZM103.855 11.528L103.855 19.8L102.423 19.8L102.423 11.528L103.855 11.528ZM103.887 8.24L103.887 9.776L102.375 9.776L102.375 8.24L103.887 8.24ZM109.746 19.96C108.984 19.96 108.317 19.7973 107.746 19.472C107.176 19.1413 106.733 18.6587 106.418 18.024C106.104 17.3893 105.946 16.6133 105.946 15.696C105.946 14.832 106.093 14.0747 106.386 13.424C106.68 12.7733 107.109 12.2693 107.674 11.912C108.245 11.5493 108.936 11.368 109.746 11.368C110.509 11.368 111.17 11.536 111.73 11.872C112.296 12.2027 112.733 12.6907 113.042 13.336C113.352 13.9813 113.506 14.768 113.506 15.696C113.506 16.5387 113.362 17.28 113.074 17.92C112.792 18.56 112.37 19.0613 111.81 19.424C111.256 19.7813 110.568 19.96 109.746 19.96ZM109.746 18.792C110.242 18.792 110.661 18.6667 111.002 18.416C111.344 18.1653 111.602 17.8053 111.778 17.336C111.954 16.8667 112.042 16.3093 112.042 15.664C112.042 15.072 111.965 14.5413 111.81 14.072C111.656 13.5973 111.408 13.2213 111.066 12.944C110.73 12.6667 110.29 12.528 109.746 12.528C109.245 12.528 108.821 12.6533 108.474 12.904C108.128 13.1493 107.864 13.5067 107.682 13.976C107.506 14.4453 107.418 15.008 107.418 15.664C107.418 16.2453 107.498 16.7733 107.658 17.248C107.818 17.7227 108.069 18.0987 108.41 18.376C108.752 18.6533 109.197 18.792 109.746 18.792ZM115.443 19.8L115.443 11.528L116.875 11.528L116.875 12.728C117.008 12.4987 117.192 12.2827 117.427 12.08C117.667 11.8773 117.955 11.7147 118.291 11.592C118.632 11.4693 119.024 11.408 119.467 11.408C119.989 11.408 120.469 11.512 120.907 11.72C121.349 11.928 121.701 12.2533 121.963 12.696C122.229 13.1333 122.363 13.6987 122.363 14.392L122.363 19.8L120.883 19.8L120.883 14.536C120.883 13.8907 120.712 13.4133 120.371 13.104C120.035 12.7893 119.597 12.632 119.059 12.632C118.685 12.632 118.336 12.6933 118.011 12.816C117.685 12.9333 117.421 13.1147 117.219 13.36C117.016 13.6 116.915 13.904 116.915 14.272L116.915 19.8L115.443 19.8ZM127.473 19.96C126.896 19.96 126.36 19.872 125.865 19.696C125.374 19.5147 124.966 19.2347 124.641 18.856C124.315 18.472 124.11 17.984 124.024 17.392L125.368 17.392C125.443 17.7173 125.576 17.9893 125.769 18.208C125.966 18.4213 126.211 18.584 126.505 18.696C126.798 18.8027 127.118 18.856 127.465 18.856C128.019 18.856 128.467 18.752 128.809 18.544C129.15 18.336 129.32 18.016 129.32 17.584C129.32 17.28 129.23 17.0373 129.048 16.856C128.872 16.6693 128.598 16.5333 128.225 16.448L126.512 16.024C125.846 15.864 125.312 15.6133 124.912 15.272C124.512 14.9307 124.312 14.4533 124.312 13.84C124.307 13.3547 124.422 12.928 124.657 12.56C124.891 12.192 125.243 11.9013 125.713 11.688C126.182 11.4747 126.766 11.368 127.465 11.368C128.361 11.368 129.083 11.5707 129.633 11.976C130.187 12.376 130.475 12.9653 130.496 13.744L129.193 13.744C129.139 13.3493 128.961 13.0373 128.656 12.808C128.358 12.5733 127.955 12.456 127.449 12.456C126.921 12.456 126.491 12.5627 126.16 12.776C125.83 12.984 125.664 13.3093 125.664 13.752C125.664 14.0453 125.782 14.2773 126.017 14.448C126.251 14.6133 126.598 14.752 127.057 14.864L128.712 15.28C129.096 15.3813 129.411 15.5147 129.656 15.68C129.907 15.8453 130.104 16.0293 130.249 16.232C130.398 16.4347 130.502 16.648 130.561 16.872C130.624 17.0907 130.656 17.3013 130.656 17.504C130.656 18.0107 130.529 18.448 130.272 18.816C130.022 19.1787 129.659 19.4613 129.185 19.664C128.715 19.8613 128.145 19.96 127.473 19.96Z" fill="#36536B" fill-opacity="1.000000" fill-rule="evenodd"/>
		<path id="Path 3" d="" fill="#D8D8D8" fill-opacity="0" fill-rule="nonzero"/>
		<path id="Path 3" d="M0 13.7179L3.89307 17.5599L12 9.55994" stroke="#BA4270" stroke-opacity="1.000000" stroke-width="2.000000"/>
	</g>
</svg>
