<svg width="73.000000" height="28.000000" viewBox="0 0 73 28" fill="none" xmlns="http://www.w3.org/2000/svg" xmlns:xlink="http://www.w3.org/1999/xlink">
	<desc>
			Created with Pixso.
	</desc>
	<defs>
		<clipPath id="clip0_4314">
			<rect id="Group 2 Copy 2" width="73.000000" height="28.000000" fill="white" fill-opacity="0"/>
		</clipPath>
	</defs>
	<rect id="Group 2 Copy 2" width="73.000000" height="28.000000" fill="#FFFFFF" fill-opacity="0"/>
	<g clip-path="url(#clip0_4314)">
		<path id="Auth" d="M36.664 19.8L40.848 8.232L42.52 8.232L46.704 19.8L45.192 19.8L44.056 16.632L39.328 16.632L38.168 19.8L36.664 19.8ZM39.704 15.272L43.664 15.272L41.696 9.696L39.704 15.272ZM51.4827 19.96C51.0508 19.9547 50.6427 19.8933 50.2588 19.776C49.8801 19.6533 49.5441 19.4747 49.2507 19.24C48.9574 19.0053 48.7254 18.7147 48.5547 18.368C48.3894 18.016 48.3068 17.608 48.3068 17.144L48.3068 11.528L49.7868 11.528L49.7868 16.992C49.7868 17.5307 49.9521 17.968 50.2827 18.304C50.6188 18.64 51.1227 18.808 51.7948 18.808C52.4027 18.808 52.8908 18.6507 53.2588 18.336C53.6321 18.016 53.8187 17.5413 53.8187 16.912L53.8187 11.528L55.2907 11.528L55.2907 19.8L54.1147 19.8L53.9627 18.216C53.8614 18.632 53.6881 18.968 53.4427 19.224C53.2028 19.48 52.9121 19.6693 52.5708 19.792C52.2347 19.9093 51.8721 19.9653 51.4827 19.96ZM61.911 12.608L60.047 12.608L60.047 17.752C60.047 18.0453 60.0763 18.2613 60.135 18.4C60.199 18.5333 60.303 18.6187 60.447 18.656C60.5963 18.6933 60.799 18.712 61.055 18.712L61.959 18.712L61.959 19.704C61.8577 19.7413 61.703 19.7733 61.495 19.8C61.2923 19.8267 61.039 19.84 60.735 19.84C60.1643 19.84 59.7217 19.7627 59.407 19.608C59.0923 19.4533 58.871 19.224 58.743 18.92C58.6203 18.616 58.559 18.2427 58.559 17.8L58.559 12.608L57.215 12.608L57.215 11.528L58.599 11.528L58.959 9.12L60.047 9.12L60.047 11.52L61.911 11.52L61.911 12.608ZM64.0365 19.8L64.0365 7.912L65.4765 7.912L65.4765 12.744C65.6152 12.5147 65.8018 12.3013 66.0365 12.104C66.2712 11.9013 66.5565 11.7387 66.8925 11.616C67.2285 11.488 67.6178 11.424 68.0605 11.424C68.5992 11.424 69.0872 11.5253 69.5245 11.728C69.9618 11.9253 70.3085 12.208 70.5645 12.576C70.8205 12.944 70.9485 13.3813 70.9485 13.888L70.9485 19.8L69.4685 19.8L69.4685 14.184C69.4685 13.688 69.2978 13.3067 68.9565 13.04C68.6205 12.768 68.1805 12.632 67.6365 12.632C67.2685 12.632 66.9218 12.6933 66.5965 12.816C66.2712 12.9333 66.0072 13.1147 65.8045 13.36C65.6072 13.6 65.5085 13.9067 65.5085 14.28L65.5085 19.8L64.0365 19.8Z" fill="#36536B" fill-opacity="1.000000" fill-rule="evenodd"/>
		<path id="Path 3" d="" fill="#D8D8D8" fill-opacity="0" fill-rule="nonzero"/>
		<path id="Path 3" d="M0 13.7179L3.89307 17.5599L12 9.55994" stroke="#BA4270" stroke-opacity="1.000000" stroke-width="2.000000"/>
	</g>
</svg>
