<svg width="280.000000" height="22.000000" viewBox="0 0 280 22" fill="none" xmlns="http://www.w3.org/2000/svg" xmlns:xlink="http://www.w3.org/1999/xlink">
	<desc>
			Created with Pixso.
	</desc>
	<defs/>
	<path id="Combined Shape" d="M32.3951 0L18.7614 0L18.1421 1.64697C23.5481 1.90332 27.8451 5.96729 27.8451 10.9429C27.8451 15.5674 24.1323 19.4048 19.2677 20.1289L18.684 21.8965L32.3951 21.8965C33.1633 21.8994 33.9011 21.5933 34.4454 21.0454C34.9899 20.4976 35.296 19.7539 35.2963 18.9775L35.2963 2.90869C35.2963 1.28809 33.9968 0 32.3951 0ZM15.046 0L9.85217 14.6675L9.85217 14.668L12.0457 14.668L14.5851 7.60889L15.2775 7.60889C15.7384 7.60889 15.7384 7.94824 15.6619 8.32568L13.3918 14.668L15.6619 14.668C15.6619 14.668 17.624 9.30762 17.9705 8.1748C18.3164 7.04248 17.624 6.47607 16.2771 6.47607L14.9689 6.47607L17.2775 0L15.046 0ZM14.3379 19.915C10.321 18.6089 7.43347 15.0151 7.43347 10.9434C7.43347 7.36426 9.94128 3.75195 13.2891 1.95605L13.9846 0.000488281L2.89441 0.000488281C1.29504 0.00292969 0 1.31348 0 2.9292L0 18.9556C0 20.5723 1.29578 21.8965 2.89441 21.8965L13.6368 21.8965L14.3379 19.915ZM114.382 0.640625C114.026 0.271973 113.535 0.0683594 113.025 0.0761719C112.497 0.0761719 112.048 0.265137 111.675 0.640625C111.317 0.992188 111.115 1.47559 111.115 1.97998C111.115 1.98877 111.115 1.99805 111.115 2.00684C111.115 2.54492 111.3 3.00244 111.67 3.38086C112.042 3.76074 112.493 3.94971 113.025 3.94971C113.555 3.94971 114.008 3.75977 114.382 3.38086C114.741 3.02686 114.943 2.5415 114.943 2.03564C114.943 2.02637 114.943 2.0166 114.942 2.00684C114.942 1.47266 114.755 1.0166 114.382 0.640625ZM69.2556 7.47656C69.3724 7.90771 69.934 8.78955 70.5157 8.78955L70.5157 8.79004L71.6782 8.79004L74.4694 0.127441L72.4916 0.127441L70.6699 6.04639L68.7322 0.166504L66.8724 0.166504L64.9347 6.04639L63.1118 0.127441L61.1354 0.127441L63.4995 7.45801C63.6156 7.88867 64.12 8.79004 64.7019 8.79004L65.903 8.79004L67.8026 2.94922L69.2556 7.47656ZM107.469 8.78613L107.469 1.93115L110.355 1.93115L110.355 0.128906L102.646 0.128906L102.646 1.93115L105.494 1.93115L105.494 8.78613L107.469 8.78613ZM98.343 8.78076L98.343 1.93506L101.227 1.93506L101.227 0.134766L93.5256 0.134766L93.5256 1.93506L96.3702 1.93506L96.3702 8.78076L98.343 8.78076ZM60.0197 0.135742L53.4427 0.135742C52.5525 0.135742 52.0886 0.644531 52.0886 1.42725L52.0886 7.64648C52.0886 8.15479 52.5525 8.78076 53.3265 8.78076L60.0197 8.78076L60.0197 6.98193L54.0614 6.98193L54.0614 5.33936L59.0139 5.33936L59.0139 3.54004L54.0614 3.54004L54.0614 1.93701L60.0197 1.93701L60.0197 0.135742ZM92.08 0.139648L85.5073 0.139648C84.6171 0.139648 84.1538 0.647461 84.1538 1.42969L84.1538 7.64307C84.1538 8.15137 84.6171 8.77637 85.3912 8.77637L92.08 8.77637L92.08 6.97852L86.126 6.97852L86.126 5.3374L91.0748 5.3374L91.0748 3.53955L86.126 3.53955L86.126 1.93701L92.08 1.93701L92.08 0.139648ZM40.9806 0.141602L40.9806 8.77441L42.9515 8.77441L42.9515 5.33691L48.0914 5.33691L48.0914 8.77441L50.0624 8.77441L50.0624 0.141602L48.0914 0.141602L48.0914 3.54004L42.9515 3.54004L42.9515 0.141602L40.9806 0.141602ZM75.9003 0.144531L75.9003 7.4834C75.9003 8.14697 76.4028 8.77148 77.2911 8.77148L83.0861 8.77148L83.0861 6.97559L77.8712 6.97559L77.8712 0.144531L75.9003 0.144531ZM113.025 3.68359C113.464 3.69092 113.887 3.51318 114.191 3.19336C114.512 2.86621 114.672 2.4707 114.672 2.00635C114.672 1.5459 114.512 1.15283 114.192 0.827637C113.87 0.500977 113.481 0.336914 113.026 0.336914C112.57 0.336914 112.183 0.500977 111.861 0.827637C111.541 1.15283 111.381 1.5459 111.381 2.00635C111.381 2.0166 111.381 2.02686 111.381 2.03711C111.381 2.47119 111.553 2.88721 111.859 3.19336C112.163 3.51367 112.586 3.69141 113.025 3.68359ZM23.6719 6.43848L20.0813 6.43848L14.9077 21.1855L17.1085 21.1855L19.4023 14.666L21.4324 14.666C23.0541 14.666 23.3247 14.0591 23.6333 13.187L25.2936 8.56201C25.8727 7.00732 24.7523 6.43848 23.6719 6.43848ZM21.3938 12.8838C21.4324 12.6562 23.0541 8.14502 23.0541 8.14502C23.1698 7.8418 23.2084 7.57617 22.8613 7.57617L21.8959 7.57617L19.8021 13.5283L20.7761 13.5283C21.1619 13.5283 21.3553 13.1113 21.3938 12.8838ZM55.9635 13.3408L53.4065 13.3408L49.4154 22L51.5073 22L52.2053 20.4331L57.156 20.4331L57.8619 22L59.8771 22L55.9635 13.3408ZM98.9531 18.6304C99.4188 18.2383 99.7284 17.6509 99.7284 16.0835C99.7284 14.3203 98.5273 13.3408 97.1327 13.3408L91.4368 13.3408L91.4368 21.9995L93.3745 21.9995L93.3745 19.4521L96.7057 19.4521C97.4811 19.4521 97.8687 20.0791 97.8687 20.4321L97.8687 21.9985L99.7284 21.9985L99.7284 20.1968C99.7284 19.6875 99.573 18.9438 98.9531 18.6304ZM71.1086 13.3491L71.1086 21.9917L73.0826 21.9917L73.0826 18.3936L74.0884 18.3936L77.7625 21.9917L79.2327 21.9917L79.2327 20.8579L75.7897 17.416L79.9299 13.3491L77.2992 13.3491L73.9336 16.5952L73.0826 16.5952L73.0826 13.3491L71.1086 13.3491ZM47.203 13.354L40.9806 13.354L40.9806 21.9868L42.9515 21.9868L42.9515 19.5649L47.2024 19.5649C48.3617 19.5649 49.6759 18.9014 49.6759 16.479L49.6759 16.4775C49.6759 14.0181 48.246 13.354 47.203 13.354ZM110.403 16.0107C110.403 14.4883 109.63 13.356 108.008 13.356L101.673 13.356L101.673 21.9844L107.969 21.9844C110.249 21.9844 110.403 19.7588 110.403 18.5483L110.403 16.0107ZM86.0529 13.3579L83.5044 13.3579L80.0676 20.7729L80.0676 21.9824L81.6122 21.9824L82.307 20.4214L87.2423 20.4214L87.9458 21.9824L89.9548 21.9824L86.0529 13.3579ZM60.7422 15.3896L60.7422 19.9507C60.7422 20.8472 61.2822 21.9785 62.7488 21.9785L67.4562 21.9785C68.5363 21.9785 69.4227 21.2378 69.4227 19.9507L69.4227 19.1714L67.4943 19.1714C67.4943 19.561 67.4163 20.1851 66.6832 20.1851L63.3269 20.1851C63.0952 20.1851 62.7101 20.0293 62.7101 19.4053L62.7101 15.9746C62.7101 15.9746 62.7039 15.9331 62.7039 15.8687C62.7039 15.6558 62.7725 15.1953 63.365 15.1953L66.7606 15.1953C67.0691 15.1953 67.4156 15.7793 67.4556 16.1689L69.4221 16.1689L69.4221 15.4292C69.4221 14.6885 68.6904 13.4014 67.4556 13.3628L62.7095 13.3628C61.7836 13.3628 60.7422 14.4155 60.7422 15.3896ZM54.6843 14.9468L53.0188 18.6304L56.3119 18.6304L54.6843 14.9468ZM84.7787 14.958L83.118 18.627L86.432 18.627L84.7787 14.958ZM93.3739 17.6509L96.9379 17.6509C97.6746 17.6509 97.868 16.7495 97.868 16.3193C97.868 15.8872 97.6746 15.1436 96.7051 15.1436L93.3739 15.1436L93.3739 17.6509ZM42.9515 17.7681L46.7391 17.7681C47.5895 17.7681 47.5895 16.8701 47.5895 16.4795C47.5895 16.0889 47.5895 15.1509 46.623 15.1509L42.9515 15.1509L42.9515 17.7681ZM108.432 18.7832L108.432 16.3232C108.434 16.2974 108.435 16.271 108.435 16.2451C108.435 15.7197 108.058 15.1523 107.506 15.1523L103.642 15.1523L103.642 20.1885L107.351 20.1885C108.046 20.1885 108.432 19.5244 108.432 18.7832Z" clip-rule="evenodd" fill="#FFFFFF" fill-opacity="1.000000" fill-rule="evenodd"/>
	<path id="Shape" d="M225.131 12.271L218.025 12.271L219.594 14.6909L226.79 14.6909L228.271 17.1108L231.409 17.1108L222.987 4.08057C222.634 3.56592 222.026 3.25928 221.374 3.25928C220.699 3.25928 220.091 3.57666 219.727 4.10254L211.338 17.1108L214.476 17.1108L221.374 6.28125L225.131 12.271ZM211.249 8.0332C211.249 10.5957 209.149 12.665 206.563 12.665L206.563 12.6655L205.347 12.6655L210.697 17.1113L206.828 17.1113L198.877 10.2456L206.386 10.2563C207.624 10.2563 208.619 9.25977 208.619 8.03369C208.619 6.80713 207.624 5.81055 206.386 5.81055L197.573 5.81055L197.573 17.1113L194.91 17.1113L194.91 3.39062L206.563 3.39062C209.149 3.39062 211.249 5.4707 211.249 8.0332ZM269.542 14.6909L279.146 14.6909L277.577 17.1108L269.365 17.1108C265.54 17.1108 262.435 14.0449 262.435 10.2559C262.435 6.46729 265.54 3.39062 269.365 3.39062L278.936 3.39062L277.356 5.81055L269.542 5.81055C267.497 5.81055 265.762 7.1792 265.231 9.04102L278.185 9.04102L276.615 11.4609L265.231 11.4609C265.762 13.333 267.497 14.6909 269.542 14.6909ZM250.63 14.6909L250.63 3.39062L247.967 3.39062L247.967 15.7969C247.967 16.1362 248.099 16.4648 248.353 16.7168C248.607 16.9688 248.95 17.1108 249.326 17.1108L261.473 17.1108L263.042 14.6909L250.63 14.6909L250.63 14.6909ZM178.519 17.1108C174.696 17.1113 171.593 14.0449 171.593 10.2563C171.593 6.46729 174.696 3.39062 178.519 3.39062L186.568 3.39062C190.392 3.39062 193.493 6.46729 193.493 10.2563C193.493 14.0449 190.392 17.1108 186.568 17.1108L178.519 17.1108ZM236.969 17.1108C233.145 17.1108 230.039 14.0449 230.039 10.2563C230.039 6.46729 233.145 3.39062 236.969 3.39062L246.53 3.39062L244.971 5.81055L237.146 5.81055C234.67 5.81055 232.658 7.80371 232.658 10.2563C232.658 12.709 234.67 14.6909 237.146 14.6909L246.751 14.6909L245.181 17.1108L236.969 17.1108ZM190.872 10.2563C190.872 12.709 188.866 14.6909 186.39 14.6909L178.697 14.6909C176.221 14.6909 174.214 12.709 174.214 10.2563C174.214 7.80371 176.221 5.81055 178.697 5.81055L186.39 5.81055C188.866 5.81055 190.872 7.80371 190.872 10.2563Z" clip-rule="evenodd" fill="#FFFFFF" fill-opacity="1.000000" fill-rule="evenodd"/>
</svg>
