<svg width="264.000000" height="27.000000" viewBox="0 0 264 27" fill="none" xmlns="http://www.w3.org/2000/svg" xmlns:xlink="http://www.w3.org/1999/xlink">
	<desc>
			Created with Pixso.
	</desc>
	<defs/>
	<path id="Combined Shape" d="M12.4196 13.1558L15.8734 13.1558L15.8734 17.9292C14.7958 18.27 13.4351 18.4565 12.0205 18.4565C6.28796 18.4565 2.91882 13.6265 2.91882 8.90918C2.91882 4.28271 5.96631 1.03711 10.218 1.03711C12.9084 1.03711 14.4739 1.93408 15.8744 3.18311L15.8744 4.74072L18.5005 2.15674C16.8395 1.05078 14.4343 0 10.9965 0C3.44958 0 0 5.3125 0 9.67822C0 15.8926 4.60022 19.6362 10.3811 19.6362C13.1841 19.6362 15.673 19.2153 18.5479 18.4282L18.5479 13.4966C18.5479 13.2446 18.6604 13.0718 18.8287 12.9194L19.736 12.0269L13.5756 12.0269L12.4196 13.1558ZM66.6335 18.8184L61.3978 18.8184L62.3573 17.874C62.5146 17.7129 62.5879 17.5566 62.5879 17.3267L62.5879 1.14746L60.8524 1.14746L62.0144 0L66.4794 0L65.5349 0.932617C65.4294 1.03271 65.2849 1.19043 65.2849 1.49805L65.2849 17.1172C65.2849 17.4512 65.5253 17.7964 65.9294 17.8452L67.431 18.0303L66.6335 18.8184ZM49.8829 11.5591C49.8829 8.91406 51.8331 6.54541 55.4381 6.54541L55.4381 6.54541L60.7811 6.54541L59.697 7.67041L58.2542 7.67041C59.436 8.71338 59.9547 9.82715 59.9547 11.1216C59.9547 13.0083 58.9287 13.9536 58.2023 14.5923C58.0698 14.7153 57.7152 14.9712 57.5104 15.1953C57.3942 15.3325 57.0774 15.6968 57.0774 16.2466C57.0774 16.6304 57.2007 16.957 57.8364 17.4702C59.9985 19.1514 60.8524 20.1265 60.8524 21.9053C60.8524 24.4287 58.5415 26.9995 54.0797 26.9995C50.3108 26.9995 48.5175 25.0864 48.5175 23.1426C48.5175 20.9229 50.5002 18.8574 55.4338 18.5454C54.9122 17.9321 54.6667 17.5332 54.6667 16.8237C54.6677 16.3423 54.8652 15.8442 54.8652 15.8442L54.1399 15.8442C51.2727 15.8442 49.8829 13.5728 49.8829 11.5591ZM73.5333 6.54541C70.5743 6.54541 67.431 8.65332 67.431 12.438C67.431 15.5635 69.6863 18.8179 73.8999 18.8179C74.9506 18.8179 75.8158 18.6914 76.6265 18.3438C77.496 17.9697 78.3328 17.3618 78.9437 16.5981C77.7905 17.1416 76.8501 17.4985 75.6007 17.4985C73.2266 17.4985 70.9376 15.8975 70.1367 12.9541L78.5237 9.78564C78.0392 8.1709 76.6732 6.54541 73.5344 6.54541L73.5333 6.54541ZM20.5582 12.7686C20.5582 9.56396 23.2048 6.54541 27.4763 6.54541L27.4763 6.54639C31.2239 6.54639 33.7155 9.49561 33.7155 12.5327C33.7155 15.7935 31.1659 18.8179 27.0103 18.8179C22.6904 18.8179 20.5582 15.5342 20.5582 12.7686ZM35.3602 12.7686C35.3602 9.56396 38.0068 6.54541 42.2783 6.54541L42.2783 6.54639C46.0259 6.54639 48.5175 9.49561 48.5175 12.5327C48.5175 15.7935 45.9679 18.8179 41.8123 18.8179C37.4924 18.8179 35.3602 15.5342 35.3602 12.7686ZM54.4436 7.38721C55.0978 7.38721 55.6438 7.62695 56.2206 8.125C56.8604 8.72363 57.8824 10.3325 57.8824 12.3228C57.8824 14.4707 56.2747 15.0586 55.4045 15.0586C54.9786 15.0586 54.4683 14.9351 54.0361 14.6284C53.0763 13.9819 52.1235 12.2622 52.1235 10.2158C52.1235 8.36963 53.1831 7.38721 54.4436 7.38721ZM75.7207 9.5874C75.7207 8.63184 74.5731 7.41113 72.9855 7.41113C71.936 7.41113 69.8085 8.14648 69.8085 10.897C69.8085 11.5527 69.948 12.1597 69.948 12.1597L75.1031 10.2104C75.5135 10.0596 75.7207 9.89648 75.7207 9.5874ZM26.7677 7.42529C29.7793 7.42529 31.1204 11.2202 31.1204 13.9268C31.1204 17.9521 27.9982 18.0317 27.625 18.0317C26.1962 18.0317 25.1976 17.1968 24.4501 16.1011C23.7921 15.0918 23.1489 13.2158 23.1489 11.3833C23.1489 9.55811 23.7667 8.6665 24.739 8.01074C25.5341 7.51904 26.2786 7.42529 26.7666 7.42529L26.7677 7.42529ZM41.5697 7.42529C44.5813 7.42529 45.9224 11.2202 45.9224 13.9268C45.9224 17.9521 42.8002 18.0317 42.427 18.0317C40.9982 18.0317 39.9996 17.1968 39.2522 16.1011C38.5941 15.0918 37.9509 13.2158 37.9509 11.3833C37.9509 9.55811 38.5687 8.6665 39.541 8.01074C40.3361 7.51904 41.0806 7.42529 41.5686 7.42529L41.5697 7.42529ZM56.3439 19.3843C56.3439 19.3843 56.1461 19.3608 55.8711 19.3608C52.1693 19.4146 50.8203 20.8638 50.8203 22.5474C50.8203 24.5801 52.7889 25.8247 55.3646 25.8247C57.7112 25.8247 59.1602 24.5537 59.1602 22.9321C59.1602 21.7529 58.502 21.0908 57.4464 20.2246C56.9929 19.8652 56.3439 19.3843 56.3439 19.3843Z" clip-rule="evenodd" fill="#FFFFFF" fill-opacity="1.000000" fill-rule="evenodd"/>
	<path id="Combined Shape" d="M162.444 3.27246L162.444 6.13721L163.01 6.10156C170.293 5.85303 175.05 12.0918 175.05 12.0918C175.05 12.0918 169.597 18.7446 163.919 18.7446C163.423 18.7446 162.939 18.6973 162.455 18.6143L162.455 20.3901C162.857 20.4375 163.27 20.4731 163.671 20.4731C168.959 20.4731 172.784 17.7622 176.49 14.5659C177.104 15.063 179.618 16.2588 180.137 16.7793C176.62 19.7388 168.416 22.1187 163.766 22.1187C163.317 22.1187 162.892 22.0947 162.467 22.0474L162.467 24.5454L182.557 24.5454L182.557 3.27246L162.444 3.27246ZM153.768 12.4351C153.768 12.4351 156.656 8.15527 162.444 7.70068L162.444 9.61768C158.548 10.0439 156.199 12.6479 156.199 12.6479C156.199 12.6479 157.557 17.75 162.444 18.6265L162.444 17.1108C159.693 16.1758 158.784 12.9438 158.784 12.9438C158.784 12.9438 160.39 11.0264 162.432 11.2749L162.444 11.2749L162.444 9.61768C162.798 9.58203 163.152 9.55859 163.506 9.57031C166.858 9.57031 168.853 12.1865 168.853 12.1865L166.126 14.4829C164.911 12.4351 164.497 11.5352 162.455 11.2866L162.455 17.1108C162.951 17.2769 163.47 17.3594 164.002 17.3594C167.979 17.3594 171.686 12.1982 171.686 12.1982C171.686 12.1982 168.251 7.51025 163.01 7.67627C162.825 7.67627 162.64 7.6875 162.455 7.69922L162.455 6.13721C156.034 6.6582 150.486 12.1035 150.486 12.1035C150.486 12.1035 153.626 21.2188 162.444 22.0474L162.444 20.3901C155.975 19.585 153.768 12.4351 153.768 12.4351ZM162.455 7.69922L162.455 7.69971C162.451 7.7002 162.448 7.70068 162.444 7.70068L162.444 7.69971L162.455 7.69922ZM188.313 21.2612L188.313 7.36377L195.414 7.36377C198.858 7.36377 202.385 8.10547 202.385 13.5889L202.385 21.2612L198.514 21.2612L198.514 14.9185C198.514 12.9771 198.264 11.9062 197.635 11.2471C197.148 10.7295 196.436 10.4824 195.414 10.4824L192.303 10.4707L192.303 21.2612L188.313 21.2612ZM210.423 18.3901L213.725 7.3877L217.762 7.3877L213.202 21.2729L207.502 21.2729L202.99 7.3877L207.265 7.3877L210.423 18.3901ZM219.424 7.3877L223.378 7.3877L223.378 21.2729L219.424 21.2729L219.424 7.3877ZM225.801 21.2729L225.801 7.3877L231.346 7.3877C234.505 7.3877 236.618 7.76416 238.067 9.70557C238.886 10.7881 239.349 12.5298 239.349 14.4834C239.349 16.6133 238.803 18.5664 237.948 19.4492C236.749 20.708 235.633 21.2729 232.213 21.2729L225.801 21.2729ZM241.202 21.2729L241.202 7.3877L245.156 7.3877L245.156 21.2729L241.202 21.2729ZM246.771 21.2612L252.292 7.3877L257.577 7.3877L263.146 21.2495L258.906 21.2495L258.075 18.8018L251.544 18.8018L250.666 21.2612L246.771 21.2612ZM254.857 9.91748L257.256 16.4131L252.387 16.4131L254.857 9.91748ZM229.719 10.3999L231.417 10.3999C233.887 10.3999 235.478 11.4941 235.478 14.3418C235.478 17.1899 233.887 18.2959 231.417 18.2959L229.719 18.2959L229.719 10.3999Z" clip-rule="evenodd" fill="#FFFFFF" fill-opacity="1.000000" fill-rule="evenodd"/>
</svg>
