<svg width="277.000000" height="26.000000" viewBox="0 0 277 26" fill="none" xmlns="http://www.w3.org/2000/svg" xmlns:xlink="http://www.w3.org/1999/xlink">
	<desc>
			Created with Pixso.
	</desc>
	<defs/>
	<path id="Combined Shape" d="M36.941 8.73779L26.6536 8.73779C25.2057 8.42383 24.1388 7.12744 23.834 5.87061L39.7225 5.87061C39.4558 7.12744 38.3889 8.46289 36.941 8.73779ZM92.951 8.73779L103.239 8.73779C104.686 8.46289 105.715 7.12744 106.02 5.87061L90.1696 5.87061C90.4744 7.12744 91.5413 8.42383 92.951 8.73779ZM2.75696 8.74609C1.35962 8.43066 0.302124 7.17041 0 5.91016L17.259 5.87061L17.259 5.91016C16.9569 7.17041 15.9373 8.35205 14.5022 8.74609L10.1968 8.74609L9.97021 8.82471L9.97021 20.1289L7.28882 20.1289L7.28882 8.82471L7.06226 8.74609L2.75696 8.74609ZM50.1244 8.69873L59.6499 8.69873C61.0978 8.2666 62.2789 7.12744 62.5837 5.90967L47.4954 5.90967L47.4954 14.3154L59.8403 14.3154L59.8403 17.2612L50.1625 17.2612C48.6384 17.6934 47.3429 18.7539 46.6952 20.1289L62.5076 20.1289L62.5076 11.5269L50.1625 11.5269L50.1244 8.69873ZM84.8353 17.3398C84.5305 18.5181 83.8065 19.5396 82.473 20.1289L70.1279 20.1289L70.1279 5.90967L72.8331 5.90967L72.8331 17.3398L84.8353 17.3398ZM26.6536 14.355L36.941 14.355C38.3889 14.0796 39.4558 12.7441 39.7225 11.4873L23.834 11.4873C24.1388 12.7441 25.2057 14.0405 26.6536 14.355ZM90.5887 20.1289L90.5887 11.5269L105.677 11.5269L105.677 20.1289L103.01 20.1289L103.01 14.394L93.2559 14.394L93.2559 20.1289L90.5887 20.1289ZM36.941 20.1289L26.6536 20.1289C25.2057 19.8535 24.1388 18.5181 23.834 17.2612L39.7225 17.2612C39.4558 18.5181 38.3889 19.8535 36.941 20.1289Z" clip-rule="evenodd" fill="#FFFFFF" fill-opacity="1.000000" fill-rule="evenodd"/>
	<path id="Combined Shape" d="M169.303 12.5806L156.975 12.5806L156.975 0L169.303 0L169.303 12.5806ZM170.125 12.5806L182.453 12.5806L182.453 0L170.125 0L170.125 12.5806ZM276.145 9.67871L276.145 11.793L273.562 11.793L273.562 16.9976C273.562 17.6641 273.679 18.1411 273.911 18.4136C274.141 18.6841 274.511 18.8208 275.011 18.8208C275.144 18.8208 275.315 18.7915 275.521 18.7324C275.725 18.6748 275.9 18.5972 276.04 18.5024L276.145 18.4316L276.145 20.5659L276.111 20.5864C275.957 20.6763 275.696 20.7598 275.312 20.8438C274.936 20.9258 274.567 20.9673 274.216 20.9673C272.082 20.9673 271 19.7861 271 17.4541L271 11.793L267.17 11.793L267.17 20.7017L264.588 20.7017L264.588 11.793L262.789 11.793L262.789 9.67871L264.588 9.67871L264.588 8.15283C264.588 7.38623 264.754 6.69385 265.083 6.09375C265.412 5.49365 265.882 5.02148 266.479 4.69043C267.076 4.36035 267.761 4.19336 268.514 4.19336C269.112 4.19336 269.595 4.25879 269.949 4.38818L269.994 4.40527L269.994 6.63184L269.899 6.58887C269.519 6.4165 269.141 6.3291 268.776 6.3291C268.269 6.3291 267.871 6.49463 267.593 6.8208C267.312 7.15039 267.17 7.64502 267.17 8.29102L267.17 9.67871L271 9.67871L271 7.1875L271.048 7.17285L273.475 6.41846L273.562 6.39111L273.562 9.67871L276.145 9.67871ZM209.723 5.41602C210.024 5.12793 210.39 4.98291 210.81 4.98291C211.252 4.98291 211.625 5.13232 211.919 5.42773C212.214 5.72314 212.363 6.08301 212.363 6.49707C212.363 6.91943 212.209 7.27637 211.907 7.55762C211.606 7.8374 211.237 7.97949 210.81 7.97949C210.383 7.97949 210.016 7.8374 209.719 7.55713C209.419 7.27637 209.268 6.91943 209.268 6.49707C209.268 6.06836 209.421 5.70459 209.723 5.41602ZM204.445 20.7012L204.445 8.86523L204.361 8.86523L199.741 20.7012L197.895 20.7012L193.202 8.86426L193.118 8.86426L193.118 20.7012L190.672 20.7012L190.672 5.32031L194.421 5.32031L198.866 16.7451L203.446 5.32031L207.049 5.32031L207.049 20.7012L204.445 20.7012ZM216.565 10.1709C217.453 9.66797 218.497 9.41309 219.667 9.41309C220.123 9.41309 220.603 9.46484 221.093 9.56836C221.585 9.67188 221.982 9.80859 222.273 9.97412L222.308 9.99414L222.308 12.4971L222.201 12.418C221.428 11.8481 220.611 11.5596 219.772 11.5596C218.792 11.5596 217.987 11.8975 217.38 12.5635C216.771 13.231 216.461 14.1362 216.461 15.2539C216.461 16.3643 216.758 17.2466 217.342 17.875C217.926 18.5029 218.729 18.8213 219.73 18.8213C220.091 18.8213 220.502 18.7402 220.953 18.5806C221.404 18.4204 221.825 18.1982 222.2 17.9199L222.308 17.8403L222.308 20.2158L222.274 20.2354C221.444 20.7212 220.409 20.9678 219.197 20.9678C218.158 20.9678 217.22 20.7358 216.408 20.2783C215.595 19.8208 214.953 19.1606 214.499 18.3169C214.046 17.4746 213.816 16.5186 213.816 15.4771C213.816 14.2881 214.053 13.2222 214.519 12.3091C214.987 11.3945 215.675 10.6748 216.565 10.1709ZM232.232 10.9961C233.244 9.94531 234.664 9.41309 236.453 9.41309C238.137 9.41309 239.473 9.92236 240.423 10.9272C241.373 11.9321 241.854 13.3306 241.854 15.0835C241.854 16.8584 241.341 18.2983 240.329 19.3623C239.317 20.4272 237.925 20.9673 236.191 20.9673C234.528 20.9673 233.183 20.4546 232.195 19.4429C231.207 18.4316 230.706 17.0439 230.706 15.3174C230.706 13.5005 231.22 12.0464 232.232 10.9961ZM244.236 10.3525C245.004 9.729 246.01 9.41309 247.227 9.41309C247.599 9.41309 248.027 9.45801 248.499 9.54688C248.973 9.63623 249.363 9.74658 249.659 9.87598L249.699 9.89355L249.699 12.2905L249.594 12.2173C249.273 11.9956 248.889 11.8145 248.452 11.6787C248.014 11.5435 247.573 11.4746 247.143 11.4746C246.68 11.4746 246.31 11.5806 246.044 11.7896C245.781 11.9976 245.652 12.2544 245.652 12.5752C245.652 12.9365 245.756 13.2222 245.961 13.4243C246.174 13.6333 246.689 13.9058 247.493 14.2334C248.502 14.647 249.225 15.1152 249.642 15.625C250.062 16.1387 250.275 16.7759 250.275 17.519C250.275 18.5488 249.879 19.3911 249.099 20.0225C248.323 20.6499 247.26 20.9678 245.94 20.9678C245.513 20.9678 245.02 20.9097 244.478 20.7959C243.935 20.6821 243.474 20.5376 243.109 20.3662L243.07 20.3477L243.07 17.8203L243.177 17.8984C243.619 18.2207 244.106 18.4722 244.623 18.6436C245.143 18.8179 245.618 18.9062 246.034 18.9062C247.157 18.9062 247.703 18.5459 247.703 17.8052C247.703 17.5454 247.649 17.3345 247.543 17.1802C247.434 17.0229 247.24 16.8613 246.968 16.7007C246.689 16.5366 246.251 16.3286 245.663 16.0825C244.963 15.7769 244.435 15.4766 244.093 15.1899C243.748 14.9009 243.489 14.5566 243.321 14.1655C243.155 13.7754 243.07 13.3159 243.07 12.7983C243.07 11.8027 243.462 10.98 244.236 10.3525ZM252.916 10.9961C253.928 9.94531 255.349 9.41309 257.137 9.41309C258.821 9.41309 260.158 9.92236 261.107 10.9272C262.057 11.9321 262.538 13.3306 262.538 15.0835C262.538 16.8584 262.025 18.2983 261.013 19.3623C260.001 20.4272 258.609 20.9673 256.875 20.9673C255.212 20.9673 253.867 20.4546 252.879 19.4429C251.891 18.4316 251.391 17.0435 251.391 15.3174C251.391 13.5005 251.904 12.0464 252.916 10.9961ZM226.786 9.67871L226.786 11.5874L226.813 11.5874C227.052 10.9678 227.363 10.4712 227.795 10.1089C228.286 9.69678 228.86 9.4873 229.501 9.4873C229.926 9.4873 230.262 9.53906 230.5 9.6416L230.541 9.65967L230.541 12.2739L230.434 12.1948C230.316 12.1084 230.115 12.0259 229.839 11.9502C229.56 11.874 229.302 11.8354 229.072 11.8354C228.394 11.8354 227.839 12.1333 227.422 12.7212C227 13.3164 226.786 14.104 226.786 15.063L226.786 20.7012L224.235 20.7012L224.235 9.67871L226.786 9.67871ZM209.509 9.67871L212.059 9.67871L212.059 20.7012L209.509 20.7012L209.509 9.67871ZM236.338 18.8213C235.401 18.8213 234.661 18.5054 234.141 17.8828C233.617 17.2573 233.352 16.3662 233.352 15.2329C233.352 14.064 233.617 13.1494 234.141 12.5127C234.662 11.8804 235.394 11.5596 236.317 11.5596C237.212 11.5596 237.925 11.8662 238.436 12.4712C238.949 13.0791 239.209 13.9868 239.209 15.1689C239.209 16.3662 238.964 17.2856 238.481 17.9009C238.002 18.5112 237.281 18.8213 236.338 18.8213ZM257.022 18.8213C256.085 18.8213 255.346 18.5054 254.825 17.8828C254.301 17.2573 254.036 16.3657 254.036 15.2329C254.036 14.064 254.301 13.1494 254.825 12.5127C255.346 11.8804 256.078 11.5596 257.001 11.5596C257.896 11.5596 258.609 11.8662 259.12 12.4712C259.633 13.0791 259.893 13.9868 259.893 15.1689C259.893 16.3662 259.649 17.2856 259.166 17.9009C258.686 18.5112 257.965 18.8213 257.022 18.8213ZM169.303 26L156.975 26L156.975 13.4194L169.303 13.4194L169.303 26ZM170.125 26L182.453 26L182.453 13.4194L170.125 13.4194L170.125 26Z" clip-rule="evenodd" fill="#FFFFFF" fill-opacity="1.000000" fill-rule="evenodd"/>
</svg>
